<mxfile host="app.diagrams.net" modified="2023-10-09T11:58:31.064Z" agent="Mozilla/5.0 (Windows NT 10.0; Win64; x64) AppleWebKit/537.36 (KHTML, like Gecko) Chrome/117.0.0.0 Safari/537.36" etag="DQ3dPh3-SoUgkbcCcqzV" version="22.0.4" type="github">
  <diagram name="Страница — 1" id="GmgOV1pOwLnGwD937b3_">
    <mxGraphModel dx="1050" dy="566" grid="1" gridSize="10" guides="1" tooltips="1" connect="1" arrows="1" fold="1" page="1" pageScale="1" pageWidth="827" pageHeight="1169" math="0" shadow="0">
      <root>
        <mxCell id="0" />
        <mxCell id="1" parent="0" />
        <mxCell id="4J4q9Hsj1Sqwo7qeOr9_-10" value="" style="rounded=1;whiteSpace=wrap;html=1;fillColor=#dae8fc;strokeColor=#6c8ebf;" parent="1" vertex="1">
          <mxGeometry x="230" y="320" width="350" height="240" as="geometry" />
        </mxCell>
        <mxCell id="4J4q9Hsj1Sqwo7qeOr9_-1" value="Пользователь" style="shape=umlActor;verticalLabelPosition=bottom;verticalAlign=top;html=1;outlineConnect=0;" parent="1" vertex="1">
          <mxGeometry x="80" y="320" width="40" height="80" as="geometry" />
        </mxCell>
        <mxCell id="4J4q9Hsj1Sqwo7qeOr9_-2" value="Просмотр товаров" style="ellipse;whiteSpace=wrap;html=1;" parent="1" vertex="1">
          <mxGeometry x="240" y="335" width="140" height="50" as="geometry" />
        </mxCell>
        <mxCell id="4J4q9Hsj1Sqwo7qeOr9_-3" value="Просмотр количества&lt;br&gt;товаров в наличии" style="ellipse;whiteSpace=wrap;html=1;" parent="1" vertex="1">
          <mxGeometry x="414" y="335" width="140" height="50" as="geometry" />
        </mxCell>
        <mxCell id="4J4q9Hsj1Sqwo7qeOr9_-4" value="Просмотр цены&lt;br&gt;товара" style="ellipse;whiteSpace=wrap;html=1;" parent="1" vertex="1">
          <mxGeometry x="414" y="410" width="140" height="50" as="geometry" />
        </mxCell>
        <mxCell id="4J4q9Hsj1Sqwo7qeOr9_-5" value="Просмотр имени&lt;br&gt;товаров" style="ellipse;whiteSpace=wrap;html=1;" parent="1" vertex="1">
          <mxGeometry x="414" y="490" width="140" height="50" as="geometry" />
        </mxCell>
        <mxCell id="4J4q9Hsj1Sqwo7qeOr9_-6" value="" style="endArrow=none;html=1;rounded=0;exitX=0.5;exitY=0.5;exitDx=0;exitDy=0;exitPerimeter=0;entryX=0;entryY=0.5;entryDx=0;entryDy=0;" parent="1" source="4J4q9Hsj1Sqwo7qeOr9_-1" target="4J4q9Hsj1Sqwo7qeOr9_-2" edge="1">
          <mxGeometry width="50" height="50" relative="1" as="geometry">
            <mxPoint x="390" y="500" as="sourcePoint" />
            <mxPoint x="440" y="450" as="targetPoint" />
          </mxGeometry>
        </mxCell>
        <mxCell id="4J4q9Hsj1Sqwo7qeOr9_-7" value="" style="endArrow=none;html=1;rounded=0;exitX=1;exitY=0.5;exitDx=0;exitDy=0;entryX=0;entryY=0.5;entryDx=0;entryDy=0;" parent="1" source="4J4q9Hsj1Sqwo7qeOr9_-2" target="4J4q9Hsj1Sqwo7qeOr9_-3" edge="1">
          <mxGeometry width="50" height="50" relative="1" as="geometry">
            <mxPoint x="390" y="500" as="sourcePoint" />
            <mxPoint x="440" y="450" as="targetPoint" />
          </mxGeometry>
        </mxCell>
        <mxCell id="4J4q9Hsj1Sqwo7qeOr9_-8" value="" style="endArrow=none;html=1;rounded=0;exitX=0;exitY=0.5;exitDx=0;exitDy=0;" parent="1" source="4J4q9Hsj1Sqwo7qeOr9_-4" edge="1">
          <mxGeometry width="50" height="50" relative="1" as="geometry">
            <mxPoint x="390" y="500" as="sourcePoint" />
            <mxPoint x="400" y="360" as="targetPoint" />
            <Array as="points">
              <mxPoint x="400" y="435" />
            </Array>
          </mxGeometry>
        </mxCell>
        <mxCell id="4J4q9Hsj1Sqwo7qeOr9_-9" value="" style="endArrow=none;html=1;rounded=0;exitX=0;exitY=0.5;exitDx=0;exitDy=0;" parent="1" source="4J4q9Hsj1Sqwo7qeOr9_-5" edge="1">
          <mxGeometry width="50" height="50" relative="1" as="geometry">
            <mxPoint x="420" y="500" as="sourcePoint" />
            <mxPoint x="400" y="430" as="targetPoint" />
            <Array as="points">
              <mxPoint x="400" y="515" />
            </Array>
          </mxGeometry>
        </mxCell>
        <mxCell id="4J4q9Hsj1Sqwo7qeOr9_-11" value="Функциональная диаграмма (Use Case)" style="text;html=1;strokeColor=none;fillColor=none;align=center;verticalAlign=middle;whiteSpace=wrap;rounded=0;" parent="1" vertex="1">
          <mxGeometry x="220" y="569.5" width="336" height="30" as="geometry" />
        </mxCell>
      </root>
    </mxGraphModel>
  </diagram>
</mxfile>
